<?xml version="1.0" encoding="utf-8"?>
<!-- Generator: Adobe Illustrator 19.2.1, SVG Export Plug-In . SVG Version: 6.00 Build 0)  -->
<svg version="1.1" id="Layer_1" xmlns="http://www.w3.org/2000/svg" xmlns:xlink="http://www.w3.org/1999/xlink" x="0px" y="0px"
	 viewBox="0 0 98 98" style="enable-background:new 0 0 98 98;" xml:space="preserve">
<style type="text/css">
	.st0{fill-rule:evenodd;clip-rule:evenodd;fill:#12AC5C;}
	.st1{fill:#FFFFFF;}
</style>
<circle class="st0" cx="49" cy="49" r="49"/>
<g>
	<g>
		<path class="st1" d="M85.5,47.5c-0.1-1.3-0.2-2.7-0.5-4c-0.2-0.9-0.5-2-1.7-2c-0.1,0-0.2,0-0.4,0c-0.1,0-0.1,0-0.3,0
			c0,0,0,0-0.1-0.2c-0.4-1-1.8-2.3-3.7-3.8c-0.5-0.4-1-0.8-1.3-1.1c0.1-0.6,0.1-1.3-0.3-1.9c-0.2-0.2-0.6-0.5-1.2-0.5
			c-0.1,0-0.2,0-0.4,0c-0.5,0-1.4-0.2-2.6-0.4c-3.3-0.7-9.3-1.9-18.4-2.1c-13.3-0.3-23.7,9.3-24.1,9.7l-0.3,0.3
			c-0.5,0.3-2.3,0.9-7.5,1.9c-7.5,1.5-8.9,3.8-9.1,4.8C13,48.7,12,49.8,11.9,51c-0.1,1-0.4,1.4-0.4,1.4l-0.1,0.2v7l0,0.1
			c0.4,1.9,2.3,2.8,5.6,2.8c1,0,1.8-0.1,1.8-0.1c0,0,0.4,0,1.1,0c-0.1-0.2-0.1-0.4-0.2-0.6c-0.1-0.2-0.1-0.4-0.1-0.6
			c-0.1-0.5-0.1-1-0.1-1.5c0-4.3,3.5-7.8,7.8-7.8s7.8,3.5,7.8,7.8c0,0.4,0,0.8-0.1,1.1c0,0.2-0.1,0.4-0.1,0.6c0,0.2-0.1,0.4-0.2,0.6
			c9.8-0.2,22.2-0.5,31.8-0.7c0-0.2-0.1-0.4-0.1-0.6c0-0.2,0-0.4-0.1-0.6c0-0.1,0-0.3,0-0.4c0-4.3,3.5-7.8,7.8-7.8
			c4.3,0,7.7,3.4,7.8,7.6c0,0.1,0,0.1,0,0.2c0,0.2,0,0.3,0,0.4c0,0.2,0,0.4-0.1,0.6c1.8-0.3,3.2-1.3,4-2.8c1.4-2.7,0.7-6.3,0.2-7.1
			C85.8,50.6,85.6,48.9,85.5,47.5z"/>
		<path class="st1" d="M21.1,62.4c1,2.3,3.4,4,6.1,4c2.8,0,5.2-1.8,6.2-4.2c0.1-0.2,0.1-0.4,0.2-0.6c0.1-0.2,0.1-0.4,0.1-0.6
			c0.1-0.4,0.1-0.8,0.1-1.2c0-3.7-3-6.6-6.6-6.6s-6.6,3-6.6,6.6c0,0.5,0.1,1,0.2,1.4c0,0.2,0.1,0.4,0.2,0.6C21,62,21,62.2,21.1,62.4
			z"/>
		<path class="st1" d="M67.7,61.4c0.7,2.9,3.3,5,6.4,5c3.2,0,5.9-2.3,6.5-5.4c0-0.2,0.1-0.4,0.1-0.6c0-0.2,0-0.4,0-0.6c0,0,0,0,0,0
			c0-3.6-3-6.6-6.6-6.6c-3.7,0-6.6,3-6.6,6.6c0,0.1,0,0.3,0,0.4c0,0.2,0,0.4,0.1,0.6C67.6,61,67.6,61.2,67.7,61.4z"/>
	</g>
</g>
</svg>
