<?xml version="1.0" encoding="utf-8"?>
<!-- Generator: Adobe Illustrator 19.2.1, SVG Export Plug-In . SVG Version: 6.00 Build 0)  -->
<svg version="1.1" id="Layer_1" xmlns="http://www.w3.org/2000/svg" xmlns:xlink="http://www.w3.org/1999/xlink" x="0px" y="0px"
	 viewBox="0 0 98 98" style="enable-background:new 0 0 98 98;" xml:space="preserve">
<style type="text/css">
	.st0{fill-rule:evenodd;clip-rule:evenodd;fill:#12AC5C;}
	.st1{fill:#FFFFFF;}
</style>
<circle class="st0" cx="49" cy="49" r="49"/>
<g>
	<path class="st1" d="M75.2,49.8h-3.8v17.6c0,3.1-2.5,5.6-5.6,5.6H32.2c-3.1,0-5.6-2.5-5.6-5.6V49.8h-3.8c-4.3,0-7.1-5.2-3.3-9.1
		l22.6-23c1.9-2,4.4-3,7-3c2.5,0,5,1,7,3l5.1,5.2v-4.6c0-2,1.6-3.6,3.6-3.6h3c1.9,0,3.6,1.6,3.6,3.6v15.1l7.1,7.3
		C82.3,44.6,79.6,49.8,75.2,49.8z"/>
</g>
</svg>
