<?xml version="1.0" encoding="utf-8"?>
<!-- Generator: Adobe Illustrator 19.2.1, SVG Export Plug-In . SVG Version: 6.00 Build 0)  -->
<svg version="1.1" id="Layer_1" xmlns="http://www.w3.org/2000/svg" xmlns:xlink="http://www.w3.org/1999/xlink" x="0px" y="0px"
	 viewBox="0 0 98 98" style="enable-background:new 0 0 98 98;" xml:space="preserve">
<style type="text/css">
	.st0{fill-rule:evenodd;clip-rule:evenodd;fill:#12AC5C;}
	.st1{fill:#FFFFFF;}
</style>
<circle class="st0" cx="49" cy="49" r="49"/>
<g>
	<path class="st1" d="M21,58.8l5.5,9.6c0.6,1,1.8,1.3,2.8,0.8l12.1-7v14c0,1.1,0.9,2.1,2.1,2.1h11.1c1.1,0,2.1-0.9,2.1-2.1v-14
		l12.1,7c1,0.6,2.3,0.2,2.8-0.8l5.5-9.6c0.6-1,0.2-2.3-0.8-2.8L64.2,49l12.1-6.9c1-0.6,1.3-1.8,0.8-2.8l-5.5-9.6
		c-0.6-1-1.8-1.3-2.8-0.8l-12.1,7v-14c0-1.1-0.9-2.1-2.1-2.1H43.5c-1.1,0-2.1,0.9-2.1,2.1v14l-12.1-7c-1-0.6-2.3-0.2-2.8,0.8
		L21,39.2c-0.6,1-0.2,2.3,0.8,2.8L33.8,49l-12.1,6.9C20.7,56.5,20.4,57.8,21,58.8z"/>
</g>
</svg>
